<svg width="116" height="100" viewBox="0 0 116 100" fill="none" xmlns="http://www.w3.org/2000/svg">
<circle cx="57" cy="50" r="50" fill="#629548" fill-opacity="0.43"/>
<path d="M10.13 35.92C12.506 35.92 14.39 36.616 15.782 38.008C17.198 39.376 17.906 41.38 17.906 44.02V55H15.35V44.272C15.35 42.304 14.858 40.804 13.874 39.772C12.89 38.74 11.486 38.224 9.66197 38.224C7.62197 38.224 6.00197 38.836 4.80197 40.06C3.62597 41.26 3.03797 42.928 3.03797 45.064V55H0.481969V36.064H2.92997V39.556C3.62597 38.404 4.58597 37.516 5.80997 36.892C7.05797 36.244 8.49797 35.92 10.13 35.92ZM31.4693 35.92C33.9413 35.92 35.8373 36.544 37.1573 37.792C38.4773 39.016 39.1373 40.84 39.1373 43.264V55H36.6893V52.048C36.1133 53.032 35.2613 53.8 34.1333 54.352C33.0293 54.904 31.7093 55.18 30.1733 55.18C28.0613 55.18 26.3813 54.676 25.1333 53.668C23.8853 52.66 23.2613 51.328 23.2613 49.672C23.2613 48.064 23.8373 46.768 24.9893 45.784C26.1653 44.8 28.0253 44.308 30.5693 44.308H36.5813V43.156C36.5813 41.524 36.1253 40.288 35.2133 39.448C34.3013 38.584 32.9693 38.152 31.2173 38.152C30.0173 38.152 28.8653 38.356 27.7613 38.764C26.6573 39.148 25.7093 39.688 24.9173 40.384L23.7653 38.476C24.7253 37.66 25.8773 37.036 27.2213 36.604C28.5653 36.148 29.9813 35.92 31.4693 35.92ZM30.5693 53.164C32.0093 53.164 33.2453 52.84 34.2773 52.192C35.3093 51.52 36.0773 50.56 36.5813 49.312V46.216H30.6413C27.4013 46.216 25.7812 47.344 25.7812 49.6C25.7812 50.704 26.2013 51.58 27.0413 52.228C27.8813 52.852 29.0573 53.164 30.5693 53.164ZM56.0516 53.848C55.5716 54.28 54.9716 54.616 54.2516 54.856C53.5556 55.072 52.8236 55.18 52.0556 55.18C50.2796 55.18 48.9116 54.7 47.9516 53.74C46.9916 52.78 46.5116 51.424 46.5116 49.672V38.224H43.1276V36.064H46.5116V31.924H49.0676V36.064H54.8276V38.224H49.0676V49.528C49.0676 50.656 49.3436 51.52 49.8956 52.12C50.4716 52.696 51.2876 52.984 52.3436 52.984C52.8716 52.984 53.3756 52.9 53.8556 52.732C54.3596 52.564 54.7916 52.324 55.1516 52.012L56.0516 53.848ZM77.7686 36.064V55H75.3206V51.544C74.6486 52.696 73.7246 53.596 72.5486 54.244C71.3726 54.868 70.0286 55.18 68.5166 55.18C66.0446 55.18 64.0886 54.496 62.6486 53.128C61.2326 51.736 60.5246 49.708 60.5246 47.044V36.064H63.0806V46.792C63.0806 48.784 63.5726 50.296 64.5566 51.328C65.5406 52.36 66.9446 52.876 68.7686 52.876C70.7606 52.876 72.3326 52.276 73.4846 51.076C74.6366 49.852 75.2126 48.16 75.2126 46V36.064H77.7686ZM87.3753 39.772C87.9753 38.5 88.8633 37.54 90.0393 36.892C91.2393 36.244 92.7153 35.92 94.4673 35.92V38.404L93.8553 38.368C91.8633 38.368 90.3033 38.98 89.1753 40.204C88.0473 41.428 87.4833 43.144 87.4833 45.352V55H84.9273V36.064H87.3753V39.772ZM115.407 46.324H99.5675C99.7115 48.292 100.467 49.888 101.835 51.112C103.203 52.312 104.931 52.912 107.019 52.912C108.195 52.912 109.275 52.708 110.259 52.3C111.243 51.868 112.095 51.244 112.815 50.428L114.255 52.084C113.415 53.092 112.359 53.86 111.087 54.388C109.839 54.916 108.459 55.18 106.947 55.18C105.003 55.18 103.275 54.772 101.763 53.956C100.275 53.116 99.1115 51.964 98.2715 50.5C97.4315 49.036 97.0115 47.38 97.0115 45.532C97.0115 43.684 97.4075 42.028 98.1995 40.564C99.0155 39.1 100.119 37.96 101.511 37.144C102.927 36.328 104.511 35.92 106.263 35.92C108.015 35.92 109.587 36.328 110.979 37.144C112.371 37.96 113.463 39.1 114.255 40.564C115.047 42.004 115.443 43.66 115.443 45.532L115.407 46.324ZM106.263 38.116C104.439 38.116 102.903 38.704 101.655 39.88C100.431 41.032 99.7355 42.544 99.5675 44.416H112.995C112.827 42.544 112.119 41.032 110.871 39.88C109.647 38.704 108.111 38.116 106.263 38.116Z" fill="#326519"/>
<line x1="24" y1="61.5" x2="86" y2="61.5" stroke="#326519"/>
<path d="M25.2937 72.503C25.2457 72.569 25.1977 72.62 25.1497 72.656C25.1017 72.692 25.0327 72.71 24.9427 72.71C24.8527 72.71 24.7537 72.674 24.6457 72.602C24.5437 72.524 24.4117 72.44 24.2497 72.35C24.0877 72.26 23.8897 72.179 23.6557 72.107C23.4277 72.029 23.1457 71.99 22.8097 71.99C22.3657 71.99 21.9727 72.071 21.6307 72.233C21.2887 72.389 21.0007 72.617 20.7667 72.917C20.5387 73.217 20.3647 73.58 20.2447 74.006C20.1307 74.432 20.0737 74.909 20.0737 75.437C20.0737 75.989 20.1367 76.481 20.2627 76.913C20.3887 77.339 20.5657 77.699 20.7937 77.993C21.0217 78.281 21.2977 78.503 21.6217 78.659C21.9517 78.809 22.3207 78.884 22.7287 78.884C23.1187 78.884 23.4397 78.839 23.6917 78.749C23.9437 78.653 24.1537 78.548 24.3217 78.434C24.4897 78.32 24.6277 78.218 24.7357 78.128C24.8437 78.032 24.9517 77.984 25.0597 77.984C25.1977 77.984 25.2997 78.035 25.3657 78.137L25.8157 78.722C25.4197 79.208 24.9247 79.565 24.3307 79.793C23.7367 80.015 23.1097 80.126 22.4497 80.126C21.8797 80.126 21.3487 80.021 20.8567 79.811C20.3707 79.601 19.9477 79.298 19.5877 78.902C19.2277 78.5 18.9427 78.008 18.7327 77.426C18.5287 76.844 18.4267 76.181 18.4267 75.437C18.4267 74.759 18.5197 74.132 18.7057 73.556C18.8977 72.98 19.1737 72.485 19.5337 72.071C19.8997 71.651 20.3497 71.324 20.8837 71.09C21.4177 70.856 22.0297 70.739 22.7197 70.739C23.3557 70.739 23.9197 70.844 24.4117 71.054C24.9037 71.258 25.3387 71.549 25.7167 71.927L25.2937 72.503ZM31.1671 70.739C31.8331 70.739 32.4331 70.85 32.9671 71.072C33.5071 71.294 33.9631 71.609 34.3351 72.017C34.7131 72.425 35.0011 72.92 35.1991 73.502C35.4031 74.078 35.5051 74.723 35.5051 75.437C35.5051 76.157 35.4031 76.805 35.1991 77.381C35.0011 77.957 34.7131 78.449 34.3351 78.857C33.9631 79.265 33.5071 79.58 32.9671 79.802C32.4331 80.018 31.8331 80.126 31.1671 80.126C30.5011 80.126 29.8981 80.018 29.3581 79.802C28.8241 79.58 28.3681 79.265 27.9901 78.857C27.6121 78.449 27.3211 77.957 27.1171 77.381C26.9131 76.805 26.8111 76.157 26.8111 75.437C26.8111 74.723 26.9131 74.078 27.1171 73.502C27.3211 72.92 27.6121 72.425 27.9901 72.017C28.3681 71.609 28.8241 71.294 29.3581 71.072C29.8981 70.85 30.5011 70.739 31.1671 70.739ZM31.1671 78.875C32.0671 78.875 32.7391 78.575 33.1831 77.975C33.6271 77.369 33.8491 76.526 33.8491 75.446C33.8491 74.36 33.6271 73.514 33.1831 72.908C32.7391 72.302 32.0671 71.999 31.1671 71.999C30.7111 71.999 30.3151 72.077 29.9791 72.233C29.6431 72.389 29.3611 72.614 29.1331 72.908C28.9111 73.202 28.7431 73.565 28.6291 73.997C28.5211 74.423 28.4671 74.906 28.4671 75.446C28.4671 75.986 28.5211 76.469 28.6291 76.895C28.7431 77.321 28.9111 77.681 29.1331 77.975C29.3611 78.263 29.6431 78.485 29.9791 78.641C30.3151 78.797 30.7111 78.875 31.1671 78.875ZM42.699 72.386C42.627 72.518 42.516 72.584 42.366 72.584C42.276 72.584 42.174 72.551 42.06 72.485C41.946 72.419 41.805 72.347 41.637 72.269C41.475 72.185 41.28 72.11 41.052 72.044C40.824 71.972 40.554 71.936 40.242 71.936C39.972 71.936 39.729 71.972 39.513 72.044C39.297 72.11 39.111 72.203 38.955 72.323C38.805 72.443 38.688 72.584 38.604 72.746C38.526 72.902 38.487 73.073 38.487 73.259C38.487 73.493 38.553 73.688 38.685 73.844C38.823 74 39.003 74.135 39.225 74.249C39.447 74.363 39.699 74.465 39.981 74.555C40.263 74.639 40.551 74.732 40.845 74.834C41.145 74.93 41.436 75.038 41.718 75.158C42 75.278 42.252 75.428 42.474 75.608C42.696 75.788 42.873 76.01 43.005 76.274C43.143 76.532 43.212 76.844 43.212 77.21C43.212 77.63 43.137 78.02 42.987 78.38C42.837 78.734 42.615 79.043 42.321 79.307C42.027 79.565 41.667 79.769 41.241 79.919C40.815 80.069 40.323 80.144 39.765 80.144C39.129 80.144 38.553 80.042 38.037 79.838C37.521 79.628 37.083 79.361 36.723 79.037L37.101 78.425C37.149 78.347 37.206 78.287 37.272 78.245C37.338 78.203 37.425 78.182 37.533 78.182C37.641 78.182 37.755 78.224 37.875 78.308C37.995 78.392 38.139 78.485 38.307 78.587C38.481 78.689 38.688 78.782 38.928 78.866C39.174 78.95 39.48 78.992 39.846 78.992C40.158 78.992 40.431 78.953 40.665 78.875C40.899 78.791 41.094 78.68 41.25 78.542C41.406 78.404 41.52 78.245 41.592 78.065C41.67 77.885 41.709 77.693 41.709 77.489C41.709 77.237 41.64 77.03 41.502 76.868C41.37 76.7 41.193 76.559 40.971 76.445C40.749 76.325 40.494 76.223 40.206 76.139C39.924 76.049 39.633 75.956 39.333 75.86C39.039 75.764 38.748 75.656 38.46 75.536C38.178 75.41 37.926 75.254 37.704 75.068C37.482 74.882 37.302 74.654 37.164 74.384C37.032 74.108 36.966 73.775 36.966 73.385C36.966 73.037 37.038 72.704 37.182 72.386C37.326 72.062 37.536 71.78 37.812 71.54C38.088 71.294 38.427 71.099 38.829 70.955C39.231 70.811 39.69 70.739 40.206 70.739C40.806 70.739 41.343 70.835 41.817 71.027C42.297 71.213 42.711 71.471 43.059 71.801L42.699 72.386ZM45.2837 80V70.883H46.2377C46.4657 70.883 46.6097 70.994 46.6697 71.216L46.7867 72.152C47.1227 71.738 47.4977 71.399 47.9117 71.135C48.3317 70.871 48.8177 70.739 49.3697 70.739C49.9877 70.739 50.4857 70.91 50.8637 71.252C51.2477 71.594 51.5237 72.056 51.6917 72.638C51.8177 72.308 51.9827 72.023 52.1867 71.783C52.3967 71.543 52.6307 71.345 52.8887 71.189C53.1467 71.033 53.4197 70.919 53.7077 70.847C54.0017 70.775 54.2987 70.739 54.5987 70.739C55.0787 70.739 55.5047 70.817 55.8767 70.973C56.2547 71.123 56.5727 71.345 56.8307 71.639C57.0947 71.933 57.2957 72.296 57.4337 72.728C57.5717 73.154 57.6407 73.643 57.6407 74.195V80H56.0387V74.195C56.0387 73.481 55.8827 72.941 55.5707 72.575C55.2587 72.203 54.8057 72.017 54.2117 72.017C53.9477 72.017 53.6957 72.065 53.4557 72.161C53.2217 72.251 53.0147 72.386 52.8347 72.566C52.6547 72.746 52.5107 72.974 52.4027 73.25C52.3007 73.52 52.2497 73.835 52.2497 74.195V80H50.6477V74.195C50.6477 73.463 50.5007 72.917 50.2067 72.557C49.9127 72.197 49.4837 72.017 48.9197 72.017C48.5237 72.017 48.1547 72.125 47.8127 72.341C47.4767 72.551 47.1677 72.839 46.8857 73.205V80H45.2837ZM63.6759 70.739C64.2219 70.739 64.7259 70.832 65.1879 71.018C65.6499 71.198 66.0489 71.462 66.3849 71.81C66.7209 72.152 66.9819 72.578 67.1679 73.088C67.3599 73.592 67.4559 74.168 67.4559 74.816C67.4559 75.068 67.4289 75.236 67.3749 75.32C67.3209 75.404 67.2189 75.446 67.0689 75.446H61.0029C61.0149 76.022 61.0929 76.523 61.2369 76.949C61.3809 77.375 61.5789 77.732 61.8309 78.02C62.0829 78.302 62.3829 78.515 62.7309 78.659C63.0789 78.797 63.4689 78.866 63.9009 78.866C64.3029 78.866 64.6479 78.821 64.9359 78.731C65.2299 78.635 65.4819 78.533 65.6919 78.425C65.9019 78.317 66.0759 78.218 66.2139 78.128C66.3579 78.032 66.4809 77.984 66.5829 77.984C66.7149 77.984 66.8169 78.035 66.8889 78.137L67.3389 78.722C67.1409 78.962 66.9039 79.172 66.6279 79.352C66.3519 79.526 66.0549 79.67 65.7369 79.784C65.4249 79.898 65.1009 79.982 64.7649 80.036C64.4289 80.096 64.0959 80.126 63.7659 80.126C63.1359 80.126 62.5539 80.021 62.0199 79.811C61.4919 79.595 61.0329 79.283 60.6429 78.875C60.2589 78.461 59.9589 77.951 59.7429 77.345C59.5269 76.739 59.4189 76.043 59.4189 75.257C59.4189 74.621 59.5149 74.027 59.7069 73.475C59.9049 72.923 60.1869 72.446 60.5529 72.044C60.9189 71.636 61.3659 71.318 61.8939 71.09C62.4219 70.856 63.0159 70.739 63.6759 70.739ZM63.7119 71.918C62.9379 71.918 62.3289 72.143 61.8849 72.593C61.4409 73.037 61.1649 73.655 61.0569 74.447H66.0159C66.0159 74.075 65.9649 73.736 65.8629 73.43C65.7609 73.118 65.6109 72.851 65.4129 72.629C65.2149 72.401 64.9719 72.227 64.6839 72.107C64.4019 71.981 64.0779 71.918 63.7119 71.918ZM72.2694 80.144C71.5494 80.144 70.9944 79.943 70.6044 79.541C70.2204 79.139 70.0284 78.56 70.0284 77.804V72.224H68.9304C68.8344 72.224 68.7534 72.197 68.6874 72.143C68.6214 72.083 68.5884 71.993 68.5884 71.873V71.234L70.0824 71.045L70.4514 68.228C70.4634 68.138 70.5024 68.066 70.5684 68.012C70.6344 67.952 70.7184 67.922 70.8204 67.922H71.6304V71.063H74.2404V72.224H71.6304V77.696C71.6304 78.08 71.7234 78.365 71.9094 78.551C72.0954 78.737 72.3354 78.83 72.6294 78.83C72.7974 78.83 72.9414 78.809 73.0614 78.767C73.1874 78.719 73.2954 78.668 73.3854 78.614C73.4754 78.56 73.5504 78.512 73.6104 78.47C73.6764 78.422 73.7334 78.398 73.7814 78.398C73.8654 78.398 73.9404 78.449 74.0064 78.551L74.4744 79.316C74.1984 79.574 73.8654 79.778 73.4754 79.928C73.0854 80.072 72.6834 80.144 72.2694 80.144ZM78.0032 70.883V80H76.4012V70.883H78.0032ZM78.3632 68.021C78.3632 68.177 78.3302 68.324 78.2642 68.462C78.2042 68.594 78.1202 68.714 78.0122 68.822C77.9102 68.924 77.7902 69.005 77.6522 69.065C77.5142 69.125 77.3672 69.155 77.2112 69.155C77.0552 69.155 76.9082 69.125 76.7702 69.065C76.6382 69.005 76.5182 68.924 76.4102 68.822C76.3082 68.714 76.2272 68.594 76.1672 68.462C76.1072 68.324 76.0772 68.177 76.0772 68.021C76.0772 67.865 76.1072 67.718 76.1672 67.58C76.2272 67.436 76.3082 67.313 76.4102 67.211C76.5182 67.103 76.6382 67.019 76.7702 66.959C76.9082 66.899 77.0552 66.869 77.2112 66.869C77.3672 66.869 77.5142 66.899 77.6522 66.959C77.7902 67.019 77.9102 67.103 78.0122 67.211C78.1202 67.313 78.2042 67.436 78.2642 67.58C78.3302 67.718 78.3632 67.865 78.3632 68.021ZM87.0457 72.503C86.9977 72.569 86.9497 72.62 86.9017 72.656C86.8537 72.692 86.7847 72.71 86.6947 72.71C86.6047 72.71 86.5057 72.674 86.3977 72.602C86.2957 72.524 86.1637 72.44 86.0017 72.35C85.8397 72.26 85.6417 72.179 85.4077 72.107C85.1797 72.029 84.8977 71.99 84.5617 71.99C84.1177 71.99 83.7247 72.071 83.3827 72.233C83.0407 72.389 82.7527 72.617 82.5187 72.917C82.2907 73.217 82.1167 73.58 81.9967 74.006C81.8827 74.432 81.8257 74.909 81.8257 75.437C81.8257 75.989 81.8887 76.481 82.0147 76.913C82.1407 77.339 82.3177 77.699 82.5457 77.993C82.7737 78.281 83.0497 78.503 83.3737 78.659C83.7037 78.809 84.0727 78.884 84.4807 78.884C84.8707 78.884 85.1917 78.839 85.4437 78.749C85.6957 78.653 85.9057 78.548 86.0737 78.434C86.2417 78.32 86.3797 78.218 86.4877 78.128C86.5957 78.032 86.7037 77.984 86.8117 77.984C86.9497 77.984 87.0517 78.035 87.1177 78.137L87.5677 78.722C87.1717 79.208 86.6767 79.565 86.0827 79.793C85.4887 80.015 84.8617 80.126 84.2017 80.126C83.6317 80.126 83.1007 80.021 82.6087 79.811C82.1227 79.601 81.6997 79.298 81.3397 78.902C80.9797 78.5 80.6947 78.008 80.4847 77.426C80.2807 76.844 80.1787 76.181 80.1787 75.437C80.1787 74.759 80.2717 74.132 80.4577 73.556C80.6497 72.98 80.9257 72.485 81.2857 72.071C81.6517 71.651 82.1017 71.324 82.6357 71.09C83.1697 70.856 83.7817 70.739 84.4717 70.739C85.1077 70.739 85.6717 70.844 86.1637 71.054C86.6557 71.258 87.0907 71.549 87.4687 71.927L87.0457 72.503ZM94.449 72.386C94.377 72.518 94.266 72.584 94.116 72.584C94.026 72.584 93.924 72.551 93.81 72.485C93.696 72.419 93.555 72.347 93.387 72.269C93.225 72.185 93.03 72.11 92.802 72.044C92.574 71.972 92.304 71.936 91.992 71.936C91.722 71.936 91.479 71.972 91.263 72.044C91.047 72.11 90.861 72.203 90.705 72.323C90.555 72.443 90.438 72.584 90.354 72.746C90.276 72.902 90.237 73.073 90.237 73.259C90.237 73.493 90.303 73.688 90.435 73.844C90.573 74 90.753 74.135 90.975 74.249C91.197 74.363 91.449 74.465 91.731 74.555C92.013 74.639 92.301 74.732 92.595 74.834C92.895 74.93 93.186 75.038 93.468 75.158C93.75 75.278 94.002 75.428 94.224 75.608C94.446 75.788 94.623 76.01 94.755 76.274C94.893 76.532 94.962 76.844 94.962 77.21C94.962 77.63 94.887 78.02 94.737 78.38C94.587 78.734 94.365 79.043 94.071 79.307C93.777 79.565 93.417 79.769 92.991 79.919C92.565 80.069 92.073 80.144 91.515 80.144C90.879 80.144 90.303 80.042 89.787 79.838C89.271 79.628 88.833 79.361 88.473 79.037L88.851 78.425C88.899 78.347 88.956 78.287 89.022 78.245C89.088 78.203 89.175 78.182 89.283 78.182C89.391 78.182 89.505 78.224 89.625 78.308C89.745 78.392 89.889 78.485 90.057 78.587C90.231 78.689 90.438 78.782 90.678 78.866C90.924 78.95 91.23 78.992 91.596 78.992C91.908 78.992 92.181 78.953 92.415 78.875C92.649 78.791 92.844 78.68 93 78.542C93.156 78.404 93.27 78.245 93.342 78.065C93.42 77.885 93.459 77.693 93.459 77.489C93.459 77.237 93.39 77.03 93.252 76.868C93.12 76.7 92.943 76.559 92.721 76.445C92.499 76.325 92.244 76.223 91.956 76.139C91.674 76.049 91.383 75.956 91.083 75.86C90.789 75.764 90.498 75.656 90.21 75.536C89.928 75.41 89.676 75.254 89.454 75.068C89.232 74.882 89.052 74.654 88.914 74.384C88.782 74.108 88.716 73.775 88.716 73.385C88.716 73.037 88.788 72.704 88.932 72.386C89.076 72.062 89.286 71.78 89.562 71.54C89.838 71.294 90.177 71.099 90.579 70.955C90.981 70.811 91.44 70.739 91.956 70.739C92.556 70.739 93.093 70.835 93.567 71.027C94.047 71.213 94.461 71.471 94.809 71.801L94.449 72.386Z" fill="#326519"/>
</svg>
